<svg width="620" height="220" viewBox="0 0 620 220" fill="none" xmlns="http://www.w3.org/2000/svg">
  <defs>
    <linearGradient id="network-core" x1="82" y1="110" x2="538" y2="110" gradientUnits="userSpaceOnUse">
      <stop stop-color="#F1FF73"/>
      <stop offset="0.48" stop-color="#FFFFFF"/>
      <stop offset="1" stop-color="#E6FF45"/>
    </linearGradient>
    <linearGradient id="network-branch" x1="154" y1="58" x2="468" y2="164" gradientUnits="userSpaceOnUse">
      <stop stop-color="#FAFFD6"/>
      <stop offset="1" stop-color="#DDFF2E"/>
    </linearGradient>
    <filter id="network-glow" x="18" y="10" width="584" height="200" filterUnits="userSpaceOnUse" color-interpolation-filters="sRGB">
      <feGaussianBlur stdDeviation="6" result="blur1"/>
      <feGaussianBlur in="SourceGraphic" stdDeviation="11" result="blur2"/>
      <feMerge>
        <feMergeNode in="blur2"/>
        <feMergeNode in="blur1"/>
        <feMergeNode in="SourceGraphic"/>
      </feMerge>
    </filter>
  </defs>

  <g filter="url(#network-glow)" opacity="0.96">
    <path d="M82 110H202L248 82L310 138L372 84L418 110H538" stroke="url(#network-core)" stroke-width="8" stroke-linecap="round" stroke-linejoin="round"/>
    <path d="M202 110L164 74L132 62" stroke="url(#network-branch)" stroke-width="3.5" stroke-linecap="round" stroke-linejoin="round"/>
    <path d="M202 110L166 142L136 154" stroke="url(#network-branch)" stroke-width="3.5" stroke-linecap="round" stroke-linejoin="round"/>
    <path d="M248 82L236 50L248 30" stroke="url(#network-branch)" stroke-width="3" stroke-linecap="round" stroke-linejoin="round"/>
    <path d="M248 82L286 58L306 34" stroke="url(#network-branch)" stroke-width="3" stroke-linecap="round" stroke-linejoin="round"/>
    <path d="M310 138L292 170L300 188" stroke="url(#network-branch)" stroke-width="3" stroke-linecap="round" stroke-linejoin="round"/>
    <path d="M310 138L348 158L372 182" stroke="url(#network-branch)" stroke-width="3" stroke-linecap="round" stroke-linejoin="round"/>
    <path d="M372 84L410 58L438 36" stroke="url(#network-branch)" stroke-width="3" stroke-linecap="round" stroke-linejoin="round"/>
    <path d="M372 84L406 122L436 136" stroke="url(#network-branch)" stroke-width="3" stroke-linecap="round" stroke-linejoin="round"/>
    <path d="M418 110L452 102L486 88" stroke="url(#network-branch)" stroke-width="3" stroke-linecap="round" stroke-linejoin="round"/>
    <path d="M418 110L454 118L488 134" stroke="url(#network-branch)" stroke-width="3" stroke-linecap="round" stroke-linejoin="round"/>
  </g>
</svg>
