<svg width="1200" height="720" viewBox="0 0 1200 720" fill="none" xmlns="http://www.w3.org/2000/svg">
  <rect width="1200" height="720" rx="36" fill="#0B0B0B"/>
  <rect x="42" y="42" width="1116" height="636" rx="28" fill="#111111" stroke="#202020"/>
  <circle cx="130" cy="108" r="10" fill="#E8FF00"/>
  <circle cx="164" cy="108" r="10" fill="#2B2B2B"/>
  <circle cx="198" cy="108" r="10" fill="#2B2B2B"/>
  <rect x="84" y="164" width="432" height="28" rx="14" fill="#E8FF00" fill-opacity="0.94"/>
  <rect x="84" y="212" width="286" height="18" rx="9" fill="#555555"/>
  <rect x="84" y="286" width="486" height="286" rx="24" fill="#0D0D0D" stroke="#252525"/>
  <path d="M138 486C196 408 256 374 324 374C391 374 448 424 518 332" stroke="#E8FF00" stroke-width="10" stroke-linecap="round"/>
  <circle cx="138" cy="486" r="12" fill="#E8FF00"/>
  <circle cx="324" cy="374" r="12" fill="#E8FF00"/>
  <circle cx="518" cy="332" r="12" fill="#E8FF00"/>
  <rect x="620" y="164" width="496" height="116" rx="24" fill="#0D0D0D" stroke="#252525"/>
  <rect x="654" y="198" width="150" height="18" rx="9" fill="#FFFFFF"/>
  <rect x="654" y="232" width="236" height="14" rx="7" fill="#555555"/>
  <rect x="620" y="304" width="496" height="268" rx="24" fill="#0D0D0D" stroke="#252525"/>
  <rect x="654" y="344" width="114" height="114" rx="18" fill="#E8FF00" fill-opacity="0.12" stroke="#E8FF00"/>
  <rect x="812" y="344" width="114" height="114" rx="18" fill="#FFFFFF" fill-opacity="0.05" stroke="#2B2B2B"/>
  <rect x="970" y="344" width="114" height="114" rx="18" fill="#FFFFFF" fill-opacity="0.05" stroke="#2B2B2B"/>
  <text x="84" y="636" fill="#FFFFFF" font-family="Arial, sans-serif" font-size="42" font-weight="700">Local Rush</text>
  <text x="84" y="670" fill="#555555" font-family="Arial, sans-serif" font-size="24">OpenStreetMap prospecting engine</text>
</svg>