<svg width="1200" height="720" viewBox="0 0 1200 720" fill="none" xmlns="http://www.w3.org/2000/svg">
  <rect width="1200" height="720" rx="36" fill="#0B0B0B"/>
  <rect x="42" y="42" width="1116" height="636" rx="28" fill="#111111" stroke="#202020"/>
  <rect x="84" y="104" width="270" height="28" rx="14" fill="#E8FF00"/>
  <rect x="84" y="152" width="344" height="18" rx="9" fill="#555555"/>
  <rect x="84" y="228" width="1032" height="332" rx="28" fill="#0D0D0D" stroke="#252525"/>
  <rect x="128" y="274" width="270" height="240" rx="22" fill="#0F0F0F" stroke="#2A2A2A"/>
  <rect x="442" y="274" width="270" height="240" rx="22" fill="#0F0F0F" stroke="#2A2A2A"/>
  <rect x="756" y="274" width="314" height="240" rx="22" fill="#0F0F0F" stroke="#2A2A2A"/>
  <circle cx="263" cy="354" r="48" fill="#E8FF00" fill-opacity="0.16" stroke="#E8FF00" stroke-width="3"/>
  <path d="M252 354L258 360L276 342" stroke="#E8FF00" stroke-width="8" stroke-linecap="round" stroke-linejoin="round"/>
  <rect x="478" y="326" width="198" height="18" rx="9" fill="#FFFFFF"/>
  <rect x="478" y="362" width="162" height="14" rx="7" fill="#555555"/>
  <rect x="478" y="396" width="130" height="14" rx="7" fill="#555555"/>
  <path d="M804 452C832 420 856 404 884 404C920 404 930 444 964 444C990 444 1010 430 1030 404" stroke="#E8FF00" stroke-width="8" stroke-linecap="round"/>
  <text x="84" y="636" fill="#FFFFFF" font-family="Arial, sans-serif" font-size="42" font-weight="700">MORTECH Bot</text>
  <text x="84" y="670" fill="#555555" font-family="Arial, sans-serif" font-size="24">Automation and digital workflow assistant</text>
</svg>